<?xml version="1.0" encoding="UTF-8"?><!DOCTYPE svg PUBLIC "-//W3C//DTD SVG 1.1//EN" "http://www.w3.org/Graphics/SVG/1.1/DTD/svg11.dtd"><svg xmlns="http://www.w3.org/2000/svg" xmlns:xlink="http://www.w3.org/1999/xlink"><defs>
<clipPath id="clip0">
<rect width="33" height="30" fill="white" transform="translate(1.5 3)"/>
</clipPath>

<filter id="vr-setup-confirmation" x="0.46814" y="0.548828" width="58.1309" height="51.5938" filterUnits="userSpaceOnUse" color-interpolation-filters="sRGB">
<feFlood flood-opacity="0" result="BackgroundImageFix"/>
<feColorMatrix in="SourceAlpha" type="matrix" values="0 0 0 0 0 0 0 0 0 0 0 0 0 0 0 0 0 0 127 0"/>
<feOffset/>
<feGaussianBlur stdDeviation="2.5"/>
<feColorMatrix type="matrix" values="0 0 0 0 1 0 0 0 0 1 0 0 0 0 1 0 0 0 0.49 0"/>
<feBlend mode="normal" in2="BackgroundImageFix" result="effect1_dropShadow"/>
<feBlend mode="normal" in="SourceGraphic" in2="effect1_dropShadow" result="shape"/>
</filter>

<filter id="vr-setup-microphone" x="0.477539" y="0" width="46.0449" height="69.9995" filterUnits="userSpaceOnUse" color-interpolation-filters="sRGB">
<feFlood flood-opacity="0" result="BackgroundImageFix"/>
<feColorMatrix in="SourceAlpha" type="matrix" values="0 0 0 0 0 0 0 0 0 0 0 0 0 0 0 0 0 0 127 0"/>
<feOffset/>
<feGaussianBlur stdDeviation="2.5"/>
<feColorMatrix type="matrix" values="0 0 0 0 1 0 0 0 0 1 0 0 0 0 1 0 0 0 0.49 0"/>
<feBlend mode="normal" in2="BackgroundImageFix" result="effect1_dropShadow"/>
<feBlend mode="normal" in="SourceGraphic" in2="effect1_dropShadow" result="shape"/>
</filter>
</defs><symbol id="sprite-core-agenda-bookmark" viewBox="0 0 20 20">
    <path d="M15.8334 17.5L10 13.3333L4.16669 17.5V4.16667C4.16669 3.72464 4.34228 3.30072 4.65484 2.98816C4.9674 2.67559 5.39133 2.5 5.83335 2.5H14.1667C14.6087 2.5 15.0326 2.67559 15.3452 2.98816C15.6578 3.30072 15.8334 3.72464 15.8334 4.16667V17.5Z" stroke-width="2" stroke-linecap="round" stroke-linejoin="round" fill="currentColor"/>
</symbol><symbol id="sprite-core-attendees-list-message" viewBox="0 0 24 24">
    <path d="M20.4829 2.16797H4.48291C3.38291 2.16797 2.48291 3.06797 2.48291 4.16797V22.168L6.48291 18.168H20.4829C21.5829 18.168 22.4829 17.268 22.4829 16.168V4.16797C22.4829 3.06797 21.5829 2.16797 20.4829 2.16797ZM20.4829 16.168H5.68291L4.48291 17.368V4.16797H20.4829V16.168ZM17.4829 11.168H15.4829V9.16797H17.4829V11.168ZM13.4829 11.168H11.4829V9.16797H13.4829V11.168ZM9.48291 11.168H7.48291V9.16797H9.48291" fill="currentColor"/>
</symbol><symbol id="sprite-core-av-microphone" viewBox="0 0 24 25">
<path d="M17.3 11.4805C17.3 14.4805 14.76 16.5805 12 16.5805C9.24 16.5805 6.7 14.4805 6.7 11.4805H5C5 14.8905 7.72 17.7105 11 18.2005V21.4805H13V18.2005C16.28 17.7105 19 14.8905 19 11.4805H17.3ZM10.8 5.38047C10.8 4.72047 11.34 4.18047 12 4.18047C12.66 4.18047 13.2 4.72047 13.2 5.38047L13.19 11.5805C13.19 12.2405 12.66 12.7805 12 12.7805C11.34 12.7805 10.8 12.2405 10.8 11.5805V5.38047ZM12 14.4805C12.7956 14.4805 13.5587 14.1644 14.1213 13.6018C14.6839 13.0392 15 12.2761 15 11.4805V5.48047C15 4.68482 14.6839 3.92176 14.1213 3.35915C13.5587 2.79654 12.7956 2.48047 12 2.48047C11.2044 2.48047 10.4413 2.79654 9.87868 3.35915C9.31607 3.92176 9 4.68482 9 5.48047V11.4805C9 12.2761 9.31607 13.0392 9.87868 13.6018C10.4413 14.1644 11.2044 14.4805 12 14.4805Z" fill="currentColor"/>
</symbol><symbol id="sprite-core-av-sound" viewBox="0 0 24 25">
<path d="M14 3.48047V5.54047C16.89 6.40047 19 9.08047 19 12.2505C19 15.4205 16.89 18.0905 14 18.9505V21.0205C18 20.1105 21 16.5305 21 12.2505C21 7.97047 18 4.39047 14 3.48047ZM16.5 12.2505C16.5 10.4805 15.5 8.96047 14 8.22047V16.2505C15.5 15.5405 16.5 14.0105 16.5 12.2505ZM3 9.25047V15.2505H7L12 20.2505V4.25047L7 9.25047H3Z" fill="currentColor"/>
</symbol><symbol id="sprite-core-chat-zones-camera" viewBox="0 0 24 24">
<path d="M4.31998 4.32007C2.20798 4.32007 0.47998 6.04807 0.47998 8.16007V15.8401C0.47998 17.9521 2.20798 19.6801 4.31998 19.6801H13.92C16.032 19.6801 17.76 17.9521 17.76 15.8401V15.5281L22.008 18.5521C22.44 18.8641 23.04 18.7681 23.352 18.3361C23.472 18.1681 23.52 17.9761 23.52 17.7841V6.24007C23.52 5.88007 23.328 5.54407 22.992 5.37607C22.68 5.20807 22.296 5.23207 21.984 5.44807L17.76 8.47207V8.16007C17.76 6.04807 16.032 4.32007 13.92 4.32007H4.31998ZM15.84 15.8401C15.84 16.8961 14.976 17.7601 13.92 17.7601H4.31998C3.26398 17.7601 2.39998 16.8961 2.39998 15.8401V8.16007C2.39998 7.10407 3.26398 6.24007 4.31998 6.24007H13.92C14.976 6.24007 15.84 7.10407 15.84 8.16007V15.8401ZM21.6 15.8881L17.76 13.1761V10.8481L21.6 8.11207V15.8881Z" fill="currentColor"/>
</symbol><symbol id="sprite-core-chat-zones-microphone" viewBox="0 0 24 24">
<path d="M15.8402 11.04V4.31998C15.8402 3.30155 15.4356 2.32483 14.7154 1.60469C13.9953 0.884551 13.0186 0.47998 12.0002 0.47998C10.9817 0.47998 10.005 0.884551 9.28487 1.60469C8.56473 2.32483 8.16016 3.30155 8.16016 4.31998V11.04C8.16016 12.0584 8.56473 13.0351 9.28487 13.7553C10.005 14.4754 10.9817 14.88 12.0002 14.88C13.0186 14.88 13.9953 14.4754 14.7154 13.7553C15.4356 13.0351 15.8402 12.0584 15.8402 11.04ZM10.0802 11.04V4.31998C10.0802 3.81077 10.2824 3.32241 10.6425 2.96234C11.0026 2.60227 11.4909 2.39998 12.0002 2.39998C12.5094 2.39998 12.9977 2.60227 13.3578 2.96234C13.7179 3.32241 13.9202 3.81077 13.9202 4.31998V11.04C13.9202 11.5492 13.7179 12.0376 13.3578 12.3976C12.9977 12.7577 12.5094 12.96 12.0002 12.96C11.4909 12.96 11.0026 12.7577 10.6425 12.3976C10.2824 12.0376 10.0802 11.5492 10.0802 11.04Z" fill="currentColor"/>
<path d="M11.9999 23.5201C12.2545 23.5201 12.4986 23.4189 12.6787 23.2389C12.8587 23.0589 12.9599 22.8147 12.9599 22.5601V19.6225C15.0712 19.3864 17.0216 18.3807 18.4384 16.7975C19.8551 15.2143 20.6389 13.1646 20.6399 11.0401C20.6399 10.7855 20.5387 10.5413 20.3587 10.3613C20.1786 10.1812 19.9345 10.0801 19.6799 10.0801C19.4253 10.0801 19.1811 10.1812 19.001 10.3613C18.821 10.5413 18.7199 10.7855 18.7199 11.0401C18.7199 12.8223 18.0119 14.5316 16.7516 15.7918C15.4914 17.0521 13.7821 17.7601 11.9999 17.7601C10.2176 17.7601 8.50835 17.0521 7.2481 15.7918C5.98786 14.5316 5.27986 12.8223 5.27986 11.0401C5.27986 10.7855 5.17872 10.5413 4.99869 10.3613C4.81865 10.1812 4.57447 10.0801 4.31986 10.0801C4.06526 10.0801 3.82108 10.1812 3.64104 10.3613C3.46101 10.5413 3.35986 10.7855 3.35986 11.0401C3.36087 13.1646 4.14462 15.2143 5.56135 16.7975C6.97809 18.3807 8.92848 19.3864 11.0399 19.6225V22.5601C11.0399 22.8147 11.141 23.0589 11.321 23.2389C11.5011 23.4189 11.7453 23.5201 11.9999 23.5201Z" fill="currentColor"/>
</symbol><symbol id="sprite-core-chat-zones-settings" viewBox="0 0 24 24">
<path d="M21.63 9.43L20.33 9.21C20.2 8.82 20.04 8.44 19.86 8.08L20.62 7.01C21.09 6.35 21.02 5.45 20.44 4.88L19.11 3.55C18.56 3 17.63 2.93 17 3.38L15.93 4.15C15.54 3.96 15.15 3.79 14.75 3.66L14.53 2.38C14.39 1.58 13.71 1 12.9 1H11.02C10.21 1 9.52 1.58 9.39 2.38L9.17 3.69C8.78 3.83 8.41 3.98 8.04 4.17L6.98 3.41C6.35 2.95 5.4 3.03 4.86 3.58L3.52 4.91C2.95 5.48 2.87 6.38 3.34 7.04L4.11 8.13C3.94 8.49 3.78 8.87 3.66 9.26L2.38 9.48C1.58 9.61 1 10.3 1 11.11V12.99C1 13.8 1.58 14.49 2.38 14.62L3.7 14.84C3.83 15.22 3.99 15.6 4.17 15.96L3.41 17.02C2.94 17.68 3.01 18.58 3.59 19.15L4.92 20.48C5.48 21.04 6.41 21.11 7.04 20.66L8.13 19.89C8.47 20.06 8.84 20.21 9.21 20.34L9.43 21.64C9.56 22.42 10.25 23 11.06 23H12.94C13.75 23 14.44 22.42 14.57 21.62L14.79 20.32C15.18 20.19 15.56 20.03 15.92 19.85L16.99 20.61C17.62 21.06 18.56 20.99 19.12 20.43L20.45 19.1C21.02 18.53 21.1 17.63 20.63 16.97L19.86 15.9C20.05 15.52 20.2 15.14 20.33 14.77L21.63 14.55C22.43 14.41 23.01 13.73 23.01 12.92V11.05C23.01 10.25 22.43 9.57 21.63 9.43ZM18.7 13.72C18.54 14.35 18.29 14.95 17.96 15.5C17.77 15.82 17.79 16.22 18 16.52L19 17.92L17.92 19L16.53 18C16.23 17.78 15.83 17.77 15.51 17.96C14.96 18.29 14.36 18.54 13.73 18.7C13.37 18.79 13.1 19.09 13.04 19.45L12.75 21.14H11.24L10.96 19.45C10.9 19.09 10.63 18.79 10.27 18.7C9.67 18.54 9.08 18.3 8.53 17.99C8.22 17.81 7.79 17.84 7.52 18.04L6.11 19.04L5.04 17.97L6.03 16.58C6.24 16.28 6.26 15.88 6.07 15.56C5.73 15 5.48 14.4 5.32 13.78C5.22 13.43 4.93 13.16 4.57 13.1L2.87 12.8V11.29L4.55 11.01C4.92 10.94 5.21 10.67 5.3 10.31C5.46 9.67 5.71 9.07 6.03 8.53C6.21 8.21 6.2 7.81 5.98 7.52L4.98 6.11L6.05 5.04L7.44 6.03C7.74 6.24 8.14 6.26 8.46 6.07C9.02 5.73 9.62 5.48 10.24 5.32C10.59 5.22 10.86 4.93 10.92 4.57L11.21 2.86H12.72L13 4.54C13.06 4.91 13.33 5.2 13.69 5.29C14.33 5.45 14.95 5.7 15.52 6.04C15.84 6.23 16.24 6.21 16.54 6L17.93 5L19 6.07L18.01 7.47C17.8 7.77 17.78 8.17 17.97 8.49C18.3 9.04 18.55 9.64 18.71 10.27C18.8 10.63 19.1 10.9 19.46 10.96L21.15 11.25V12.76L19.46 13.04C19.08 13.1 18.79 13.37 18.7 13.72Z" fill="currentColor"/>
<path d="M12.0001 7.06006C9.28006 7.06006 7.06006 9.27006 7.06006 12.0001C7.06006 14.7201 9.27006 16.9401 12.0001 16.9401C14.7301 16.9401 16.9401 14.7301 16.9401 12.0001C16.9401 9.28006 14.7201 7.06006 12.0001 7.06006ZM15.0701 12.0001C15.0701 13.6901 13.6901 15.0701 12.0001 15.0701C10.3101 15.0701 8.94006 13.6901 8.94006 12.0001C8.94006 10.3101 10.3201 8.93006 12.0101 8.93006C13.7001 8.93006 15.0701 10.3101 15.0701 12.0001Z" fill="currentColor"/>
</symbol><symbol id="sprite-core-ban-platform" viewBox="0 0 24 24">
<path d="M4.92969 4.93L19.0697 19.07" stroke="#0D152B" stroke-width="2" stroke-linecap="round" stroke-linejoin="round"/>
<path d="M12 22C17.5228 22 22 17.5228 22 12C22 6.47715 17.5228 2 12 2C6.47715 2 2 6.47715 2 12C2 17.5228 6.47715 22 12 22Z" stroke="#0D152B" stroke-width="2" stroke-linecap="round" stroke-linejoin="round"/>
<path fill-rule="evenodd" clip-rule="evenodd" d="M6.50703 15.6418C7.15835 14.9181 8.05372 14.5 9 14.5H15C15.9463 14.5 16.8416 14.9181 17.493 15.6418C18.1427 16.3638 18.5 17.3327 18.5 18.3333V20C18.5 20.2761 18.2761 20.5 18 20.5C17.7239 20.5 17.5 20.2761 17.5 20V18.3333C17.5 17.5659 17.2251 16.8391 16.7497 16.3108C16.2758 15.7842 15.645 15.5 15 15.5H9C8.35498 15.5 7.72422 15.7842 7.25033 16.3108C6.77486 16.8391 6.5 17.5659 6.5 18.3333V20C6.5 20.2761 6.27614 20.5 6 20.5C5.72386 20.5 5.5 20.2761 5.5 20V18.3333C5.5 17.3327 5.85728 16.3638 6.50703 15.6418ZM12 7.5C10.6193 7.5 9.5 8.61929 9.5 10C9.5 11.3807 10.6193 12.5 12 12.5C13.3807 12.5 14.5 11.3807 14.5 10C14.5 8.61929 13.3807 7.5 12 7.5ZM8.5 10C8.5 8.067 10.067 6.5 12 6.5C13.933 6.5 15.5 8.067 15.5 10C15.5 11.933 13.933 13.5 12 13.5C10.067 13.5 8.5 11.933 8.5 10Z" fill="black"/>
</symbol><symbol id="sprite-core-ban" viewBox="0 0 24 24">
<path d="M12 22C17.5228 22 22 17.5228 22 12C22 6.47715 17.5228 2 12 2C6.47715 2 2 6.47715 2 12C2 17.5228 6.47715 22 12 22Z" stroke="#0D152B" stroke-width="2" stroke-linecap="round" stroke-linejoin="round"/>
<path d="M4.92969 4.92993L19.0697 19.0699" stroke="#0D152B" stroke-width="2" stroke-linecap="round" stroke-linejoin="round"/>
<path d="M19.0703 4.92993L4.93031 19.0699" stroke="#0D152B" stroke-width="2" stroke-linecap="round" stroke-linejoin="round"/>
</symbol><symbol id="sprite-core-block" viewBox="0 0 24 24">
<path d="M12 22C17.5228 22 22 17.5228 22 12C22 6.47715 17.5228 2 12 2C6.47715 2 2 6.47715 2 12C2 17.5228 6.47715 22 12 22Z" stroke="#0D152B" stroke-width="2" stroke-linecap="round" stroke-linejoin="round"/>
<path d="M4.92969 4.93005L19.0697 19.0701" stroke="#0D152B" stroke-width="2" stroke-linecap="round" stroke-linejoin="round"/>
</symbol><symbol id="sprite-core-report" viewBox="0 0 24 24">
    <path d="M4 15C4 15 5 14 8 14C11 14 13 16 16 16C19 16 20 15 20 15V3C20 3 19 4 16 4C13 4 11 2 8 2C5 2 4 3 4 3V15Z" stroke="black" stroke-width="2" stroke-linecap="round" stroke-linejoin="round"/>
    <path d="M4 22V15" stroke="black" stroke-width="2" stroke-linecap="round" stroke-linejoin="round"/>
</symbol><symbol id="sprite-dreamwave-logo" viewBox="0 0 275.17 262.49"><path d="M260.83,113.7l-1.11-1.1a91.42,91.42,0,0,0-59.88-25.34L161.4,87h-58a.27.27,0,0,1-.17-.06L38.67,34.67a.29.29,0,0,1,.18-.51h142.6a9.68,9.68,0,0,1,9.67,9.68v29.6a.29.29,0,0,0,.29.29h14.84a.29.29,0,0,0,.28-.29V43.84a25.08,25.08,0,0,0-25.08-25.08H37.5A25.08,25.08,0,0,0,12.42,43.84V184.07c0,8.29,4.9,14.69,10.36,20.15,3.34,3.34,76.67,68.53,77.39,69.17h0a25,25,0,0,0,18.2,7.84h77a92.55,92.55,0,0,0,70.39-32.05,90.62,90.62,0,0,0,21.84-59.28V178.28A90.74,90.74,0,0,0,260.83,113.7ZM124.94,208.87h70.69L242,250.31a75.18,75.18,0,0,1-45.74,15.35H118.38a9.45,9.45,0,0,1-5.55-1.79l0,0-1.78-1.59a9.45,9.45,0,0,1-2.21-6.09V222H93.29v24.31L51.37,208.87h73.57m-87.73-15.4a9.25,9.25,0,0,1-4.19-1l-.06-.05h0a9.4,9.4,0,0,1-5.12-8.36V45.94l65.47,53v81.37h15.59V102.54h82.24l15.41.69A75.74,75.74,0,0,1,272,178.28v11.63a75.16,75.16,0,0,1-18.59,49.71l-46.88-41.9v-82H191.12v77.71Z" transform="translate(-12.42 -18.76)"/></symbol><symbol id="sprite-dreamwave" viewBox="0 0 110 20">
<path d="M35.1135 5.284C36.1486 6.23898 36.6585 7.53454 36.6585 9.16729C36.6585 10.8159 36.1486 12.1884 35.1135 13.2508C34.0785 14.3133 32.6762 14.853 30.9078 14.853H27.3875V3.85153H30.8119C32.6446 3.85153 34.0785 4.32902 35.1135 5.284ZM33.9674 12.4509C34.7474 11.6803 35.1463 10.5862 35.1463 9.16842C35.1463 7.8276 34.7474 6.81039 33.9674 6.11678C33.1873 5.42318 32.151 5.08373 30.8926 5.08373H28.9009V13.6208H30.9558C32.1662 13.622 33.1709 13.2361 33.9674 12.4509Z" fill="currentColor"/>
<path d="M40.4185 8.98286C39.9729 9.4909 39.7495 10.1845 39.7495 11.0784V14.8542H38.3157V6.88734H39.7495L39.7659 8.81427H39.7823C39.9577 8.1829 40.2758 7.68957 40.7062 7.35012C41.1366 7.01067 41.6302 6.82624 42.2033 6.77985V8.16706C41.4536 8.21232 40.8489 8.48953 40.4185 8.98286Z" fill="currentColor"/>
<path d="M50.6615 11.2482H44.1938C44.2418 12.0651 44.512 12.7123 44.9903 13.1751C45.4686 13.6526 46.0733 13.8846 46.8218 13.8846C48.0803 13.8846 48.8604 13.4218 49.1317 12.4826H50.534C50.3106 13.3143 49.8814 13.9468 49.2276 14.3779C48.575 14.8248 47.7937 15.0409 46.8546 15.0409C45.6441 15.0409 44.6722 14.6551 43.9237 13.8699C43.1752 13.0993 42.8091 12.0821 42.8091 10.8341C42.8091 9.63241 43.1915 8.64575 43.94 7.85936C44.6886 7.08881 45.6605 6.70297 46.823 6.70297C47.5084 6.70297 48.113 6.8263 48.6393 7.07297C49.1492 7.33548 49.5469 7.67379 49.8334 8.09018C50.1048 8.52128 50.3118 8.98406 50.4545 9.46155C50.5819 9.93904 50.6451 10.4629 50.6615 11.0026V11.2482ZM49.2124 10.1393C49.1492 9.42987 48.9095 8.87544 48.5118 8.45905C48.0978 8.04266 47.5399 7.84239 46.823 7.84239C46.1061 7.84239 45.5166 8.04266 45.0546 8.45905C44.5927 8.87544 44.3061 9.44571 44.2102 10.1393H49.2124Z" fill="currentColor"/>
<path d="M57.4156 13.6988V13.3911H57.3992C57.2718 13.8075 56.9852 14.1922 56.5548 14.5316C56.1244 14.8711 55.5034 15.0397 54.6906 15.0397C53.7666 15.0397 53.0497 14.8088 52.5561 14.3302C52.0626 13.8527 51.8076 13.313 51.8076 12.6816C51.8076 12.3116 51.8871 11.988 52.0462 11.695C52.2053 11.4019 52.3971 11.1869 52.6041 11.0172C52.8111 10.8633 53.0824 10.7242 53.4485 10.6008C53.7994 10.4933 54.1011 10.4164 54.3409 10.37C54.5806 10.3236 54.8824 10.2772 55.2648 10.2308C55.6309 10.1844 55.8706 10.1539 55.9817 10.138C56.5233 10.0453 56.9057 9.90721 57.1127 9.73749C57.3197 9.56777 57.4156 9.3211 57.4156 8.99749C57.4156 8.65804 57.2566 8.38083 56.9373 8.16585C56.6028 7.96557 56.1572 7.85808 55.5829 7.85808C55.073 7.85808 54.659 7.98141 54.3409 8.24279C54.0064 8.50529 53.8309 8.84361 53.7994 9.29055H52.3655C52.3971 8.61279 52.6836 8.01196 53.2251 7.47224C53.7666 6.94836 54.5315 6.68585 55.535 6.68585C56.1081 6.68585 56.6016 6.76279 57.032 6.90197C57.4624 7.04114 57.7805 7.22557 58.0191 7.42585C58.2425 7.62612 58.4179 7.88863 58.5606 8.18055C58.6881 8.48832 58.7676 8.76667 58.7992 8.99749C58.8308 9.24416 58.8472 9.52137 58.8472 9.81443V13.2361C58.8472 13.8063 58.8951 14.3461 58.9746 14.8541H57.4449C57.432 14.5927 57.4156 14.2069 57.4156 13.6988ZM56.7303 13.2214C57.2086 12.7744 57.4472 12.0808 57.4472 11.1564V10.0928H57.4156C57.3197 10.3858 57.1127 10.6325 56.8098 10.8328C56.4917 11.033 55.9338 11.2028 55.1373 11.3408C54.4683 11.4483 53.99 11.6033 53.6883 11.7878C53.3865 11.9722 53.2263 12.2652 53.2263 12.6816C53.2263 13.0516 53.3853 13.3447 53.7046 13.5755C54.0227 13.8063 54.4368 13.915 54.9467 13.915C55.6473 13.915 56.2367 13.683 56.7303 13.2214Z" fill="currentColor"/>
<path d="M71.4024 7.53462C71.8328 8.08905 72.0398 8.81321 72.0398 9.69238V14.8554H70.6059V9.83155C70.6059 8.52128 70.0808 7.87407 69.013 7.87407C67.7861 7.87407 67.1814 8.7985 67.1814 10.6326V14.8554H65.7639V9.83155C65.7639 8.52128 65.2377 7.87407 64.2026 7.87407C62.9278 7.87407 62.2915 8.7985 62.2915 10.6326V14.8554H60.8577V6.88741H62.2915V8.50544H62.3079C62.419 7.9974 62.6588 7.58101 63.0564 7.22685C63.4389 6.8727 63.9324 6.70297 64.5535 6.70297C65.8751 6.70297 66.6879 7.2574 67.006 8.38324H67.0376C67.1651 7.9363 67.4516 7.55159 67.882 7.21214C68.3124 6.8727 68.7896 6.7041 69.3475 6.7041C70.2866 6.70184 70.972 6.98019 71.4024 7.53462Z" fill="currentColor"/>
<path d="M73.3135 6.8873H74.7789L76.1169 11.9734L76.483 13.3753H76.4993C76.5473 13.2056 76.5952 12.9747 76.6748 12.6658C76.7543 12.3728 76.8023 12.142 76.8502 11.9881L78.2045 6.8873H80.084L81.4384 11.9881L81.8044 13.39H81.8208C81.8688 13.2203 81.9319 12.9736 82.0114 12.65C82.091 12.3264 82.1553 12.0956 82.2021 11.9258L83.5237 6.88617H84.9891L82.5518 14.8541H81.0384L79.5086 9.38338C79.4606 9.22949 79.4127 8.99754 79.3332 8.68977C79.2536 8.382 79.1905 8.15005 79.1425 7.99616H79.1262C79.0782 8.15005 79.0303 8.382 78.9507 8.68977C78.8712 8.99754 78.8232 9.22949 78.7753 9.38338L77.2455 14.8541H75.7321L73.3135 6.8873Z" fill="currentColor"/>
<path d="M91.2989 13.6988V13.3911H91.2826C91.1551 13.8075 90.8685 14.1922 90.4381 14.5316C90.0077 14.8711 89.3867 15.0397 88.5739 15.0397C87.6499 15.0397 86.933 14.8088 86.4394 14.3302C85.9459 13.8527 85.6909 13.313 85.6909 12.6816C85.6909 12.3116 85.7704 11.988 85.9295 11.695C86.0886 11.4019 86.2804 11.1869 86.4874 11.0172C86.6944 10.8633 86.9657 10.7242 87.3318 10.6008C87.6827 10.4933 87.9844 10.4164 88.2242 10.37C88.4639 10.3236 88.7657 10.2772 89.1481 10.2308C89.5142 10.1844 89.754 10.1539 89.8651 10.138C90.4066 10.0453 90.789 9.90721 90.996 9.73749C91.203 9.56777 91.2989 9.3211 91.2989 8.99749C91.2989 8.65804 91.1399 8.38083 90.8206 8.16585C90.4861 7.96557 90.0405 7.85808 89.4662 7.85808C88.9563 7.85808 88.5423 7.98141 88.2242 8.24279C87.8897 8.50529 87.7143 8.84361 87.6827 9.29055H86.2488C86.2804 8.61279 86.5669 8.01196 87.1084 7.47224C87.6499 6.94836 88.4148 6.68585 89.4183 6.68585C89.9914 6.68585 90.4861 6.76279 90.9153 6.90197C91.3457 7.04114 91.6638 7.22557 91.9024 7.42585C92.1258 7.62612 92.3012 7.88863 92.4439 8.18055C92.5714 8.48832 92.6509 8.76667 92.6825 8.99749C92.7141 9.24416 92.7305 9.52137 92.7305 9.81443V13.2361C92.7305 13.8063 92.7784 14.3461 92.858 14.8541H91.3305C91.3141 14.5927 91.2989 14.2069 91.2989 13.6988ZM90.6136 13.2214C91.0919 12.7744 91.3305 12.0808 91.3305 11.1564V10.0928H91.2989C91.203 10.3858 90.996 10.6325 90.6931 10.8328C90.375 11.033 89.8171 11.2028 89.0206 11.3408C88.3517 11.4483 87.8733 11.6033 87.5716 11.7878C87.2686 11.9722 87.1096 12.2652 87.1096 12.6816C87.1096 13.0516 87.2687 13.3447 87.5879 13.5755C87.9061 13.8063 88.3213 13.915 88.83 13.915C89.5306 13.915 90.12 13.683 90.6136 13.2214Z" fill="currentColor"/>
<path d="M95.3128 6.88739C95.5678 7.61155 95.9502 8.7057 96.4754 10.1699C96.9853 11.634 97.3677 12.7282 97.6379 13.4523H97.6543L99.9478 6.88739H101.509C101.175 7.76543 100.665 9.09154 99.9793 10.8635C99.294 12.6354 98.7688 13.9762 98.418 14.8554H96.8414C96.4906 13.9773 95.9818 12.6365 95.2964 10.8635C94.6111 9.09041 94.086 7.76543 93.7515 6.88739H95.3128Z" fill="currentColor"/>
<path d="M110 11.2482H103.532C103.58 12.0651 103.851 12.7123 104.329 13.1751C104.807 13.6526 105.412 13.8846 106.16 13.8846C107.419 13.8846 108.199 13.4218 108.47 12.4826H109.873C109.649 13.3143 109.22 13.9468 108.566 14.3779C107.914 14.8248 107.132 15.0409 106.193 15.0409C104.983 15.0409 104.011 14.6551 103.262 13.8699C102.514 13.0993 102.148 12.0821 102.148 10.8341C102.148 9.63241 102.53 8.64575 103.279 7.85936C104.027 7.08881 104.999 6.70297 106.162 6.70297C106.847 6.70297 107.452 6.8263 107.978 7.07297C108.488 7.33548 108.886 7.67379 109.172 8.09018C109.442 8.52128 109.65 8.98406 109.793 9.46155C109.921 9.93904 109.984 10.4629 110 11.0026V11.2482ZM108.551 10.1393C108.488 9.42987 108.248 8.87544 107.85 8.45905C107.436 8.04266 106.879 7.84239 106.162 7.84239C105.445 7.84239 104.855 8.04266 104.393 8.45905C103.931 8.87544 103.645 9.44571 103.549 10.1393H108.551Z" fill="currentColor"/>
<path d="M19.369 7.16235C19.3397 7.13406 19.3105 7.10691 19.2813 7.07975C18.0263 5.90526 16.3574 5.23655 14.6124 5.16753L11.616 5.1449H7.09451C7.08983 5.1449 7.08398 5.14377 7.08048 5.14037L2.04672 1.20051C2.03034 1.18807 2.0397 1.16204 2.06075 1.16204H13.1785C13.5949 1.16204 13.9329 1.48904 13.9329 1.89186V4.12429C13.9329 4.13561 13.9434 4.14579 13.9551 4.14579H15.1118C15.1235 4.14579 15.134 4.13561 15.134 4.12429V1.89186C15.134 0.846357 14.258 0 13.1785 0H1.95549C0.875995 0 0 0.847488 0 1.89186V12.4702C0 13.0959 0.382444 13.5779 0.808161 13.9898C1.06897 14.2421 6.78575 19.1596 6.84189 19.2071C6.84189 19.2071 6.84189 19.2071 6.84306 19.2082C7.19977 19.5726 7.70385 19.8 8.26173 19.8H14.2627C16.3679 19.8 18.383 18.9299 19.7514 17.382C20.8531 16.1362 21.4543 14.568 21.4543 12.9103V12.0334C21.4543 10.1936 20.714 8.46357 19.369 7.16235ZM8.77282 14.3405H14.2849L17.8988 17.4657C16.8778 18.217 15.6381 18.6244 14.3329 18.6244H8.26173C8.10033 18.6244 7.95179 18.5746 7.83016 18.4897L7.8325 18.4875L7.69449 18.3675C7.58689 18.2431 7.5214 18.0824 7.5214 17.9081V15.334H6.30623V17.167L3.03733 14.3405H8.77282ZM1.93327 13.1785C1.81515 13.1785 1.70521 13.1513 1.6058 13.1038L1.60112 13.0993L1.59995 13.1004C1.3637 12.9828 1.20113 12.744 1.20113 12.4702V2.05027L6.30623 6.04444V12.1817H7.52023V6.31939H13.9329L15.134 6.37144C16.4077 6.53777 17.5842 7.09899 18.5094 7.99287C19.6251 9.07231 20.2391 10.507 20.2391 12.0334V12.9103C20.2391 14.3032 19.7269 15.6203 18.79 16.6601L15.1352 13.4998V7.31737H13.9341V13.1785H1.93327Z" fill="currentColor"/>
</symbol><symbol id="sprite-core-arrow-left" viewBox="0 0 24 24">
<path d="M20.0002 11V13H8.00016L13.5002 18.5L12.0802 19.92L4.16016 12L12.0802 4.08002L13.5002 5.50002L8.00016 11H20.0002Z" fill="currentColor"/>
</symbol><symbol id="sprite-core-arrow-right" viewBox="0 0 24 24">
<path fill-rule="evenodd" clip-rule="evenodd" d="M12.2929 6.70711C11.9024 6.31658 11.9024 5.68342 12.2929 5.29289C12.6834 4.90237 13.3166 4.90237 13.7071 5.29289L19.7071 11.2929C20.0976 11.6834 20.0976 12.3166 19.7071 12.7071L13.7071 18.7071C13.3166 19.0976 12.6834 19.0976 12.2929 18.7071C11.9024 18.3166 11.9024 17.6834 12.2929 17.2929L16.5858 13H5C4.44772 13 4 12.5523 4 12C4 11.4477 4.44772 11 5 11H16.5858L12.2929 6.70711Z" fill="currentColor"/>
</symbol><symbol id="sprite-core-check" viewBox="0 0 36 36">
<path fill-rule="evenodd" clip-rule="evenodd" d="M31.0607 7.93934C31.6464 8.52513 31.6464 9.47487 31.0607 10.0607L14.5607 26.5607C13.9749 27.1464 13.0251 27.1464 12.4393 26.5607L4.93934 19.0607C4.35355 18.4749 4.35355 17.5251 4.93934 16.9393C5.52513 16.3536 6.47487 16.3536 7.06066 16.9393L13.5 23.3787L28.9393 7.93934C29.5251 7.35355 30.4749 7.35355 31.0607 7.93934Z" fill="currentColor"/>
</symbol><symbol id="sprite-core-chevron-bottom" viewBox="0 0 24 24">
<path fill-rule="evenodd" clip-rule="evenodd" d="M5.29289 8.29289C5.68342 7.90237 6.31658 7.90237 6.70711 8.29289L12 13.5858L17.2929 8.29289C17.6834 7.90237 18.3166 7.90237 18.7071 8.29289C19.0976 8.68342 19.0976 9.31658 18.7071 9.70711L12.7071 15.7071C12.3166 16.0976 11.6834 16.0976 11.2929 15.7071L5.29289 9.70711C4.90237 9.31658 4.90237 8.68342 5.29289 8.29289Z" fill="currentColor"/>
</symbol><symbol id="sprite-core-chevron-left" viewBox="0 0 24 24">
<path fill-rule="evenodd" clip-rule="evenodd" d="M14.7071 5.29289C15.0976 5.68342 15.0976 6.31658 14.7071 6.70711L9.41421 12L14.7071 17.2929C15.0976 17.6834 15.0976 18.3166 14.7071 18.7071C14.3166 19.0976 13.6834 19.0976 13.2929 18.7071L7.29289 12.7071C6.90237 12.3166 6.90237 11.6834 7.29289 11.2929L13.2929 5.29289C13.6834 4.90237 14.3166 4.90237 14.7071 5.29289Z" fill="currentColor"/>
</symbol><symbol id="sprite-core-chevron-right" viewBox="0 0 24 24">
<path fill-rule="evenodd" clip-rule="evenodd" d="M9.29289 5.29289C8.90237 5.68342 8.90237 6.31658 9.29289 6.70711L14.5858 12L9.29289 17.2929C8.90237 17.6834 8.90237 18.3166 9.29289 18.7071C9.68342 19.0976 10.3166 19.0976 10.7071 18.7071L16.7071 12.7071C17.0976 12.3166 17.0976 11.6834 16.7071 11.2929L10.7071 5.29289C10.3166 4.90237 9.68342 4.90237 9.29289 5.29289Z" fill="currentColor"/>
</symbol><symbol id="sprite-core-chevron-top" viewBox="0 0 24 24">
<path fill-rule="evenodd" clip-rule="evenodd" d="M11.2929 8.29289C11.6834 7.90237 12.3166 7.90237 12.7071 8.29289L18.7071 14.2929C19.0976 14.6834 19.0976 15.3166 18.7071 15.7071C18.3166 16.0976 17.6834 16.0976 17.2929 15.7071L12 10.4142L6.70711 15.7071C6.31658 16.0976 5.68342 16.0976 5.29289 15.7071C4.90237 15.3166 4.90237 14.6834 5.29289 14.2929L11.2929 8.29289Z" fill="currentColor"/>
</symbol><symbol id="sprite-core-close" viewBox="0 0 24 24">
<path d="M19 6.41L17.59 5L12 10.59L6.41 5L5 6.41L10.59 12L5 17.59L6.41 19L12 13.41L17.59 19L19 17.59L13.41 12L19 6.41Z" fill="currentColor"/>
</symbol><symbol id="sprite-core-copy" viewBox="0 0 24 24">
<path d="M19 8H10C8.89543 8 8 8.89543 8 10V19C8 20.1046 8.89543 21 10 21H19C20.1046 21 21 20.1046 21 19V10C21 8.89543 20.1046 8 19 8Z" stroke="black" stroke-width="2" stroke-linecap="round" stroke-linejoin="round"/>
<path d="M5 16C4.46957 16 3.96086 15.7893 3.58579 15.4142C3.21071 15.0391 3 14.5304 3 14V5C3 4.46957 3.21071 3.96086 3.58579 3.58579C3.96086 3.21071 4.46957 3 5 3H14C14.5304 3 15.0391 3.21071 15.4142 3.58579C15.7893 3.96086 16 4.46957 16 5" stroke="black" stroke-width="2" stroke-linecap="round" stroke-linejoin="round"/>
</symbol><symbol id="sprite-core-download" viewBox="0 0 24 24">
<path fill-rule="evenodd" clip-rule="evenodd" d="M3 13C3.55228 13 4 13.4477 4 14V18C4 19.1046 4.89543 20 6 20H18C19.1046 20 20 19.1046 20 18V14C20 13.4477 20.4477 13 21 13C21.5523 13 22 13.4477 22 14V18C22 20.2091 20.2091 22 18 22H6C3.79086 22 2 20.2091 2 18V14C2 13.4477 2.44772 13 3 13Z" fill="currentColor"/>
<path fill-rule="evenodd" clip-rule="evenodd" d="M12.9998 3C12.9998 2.44772 12.552 2 11.9998 2C11.4475 2 10.9998 2.44772 10.9998 3L10.9998 11.4924L8.45711 8.94975C8.06658 8.55922 7.43342 8.55922 7.04289 8.94975C6.65237 9.34027 6.65237 9.97344 7.04289 10.364L11.0861 14.4072C11.2421 14.7565 11.5925 15 11.9998 15C12.4166 15 12.774 14.7449 12.9241 14.3823L16.9424 10.364C17.3329 9.97344 17.3329 9.34027 16.9424 8.94975C16.5519 8.55922 15.9187 8.55922 15.5282 8.94975L12.9998 11.4782L12.9998 3Z" fill="currentColor"/>
</symbol><symbol id="sprite-core-notifications" viewBox="0 0 24 24">
<path d="M18 8C18 6.4087 17.3679 4.88258 16.2426 3.75736C15.1174 2.63214 13.5913 2 12 2C10.4087 2 8.88258 2.63214 7.75736 3.75736C6.63214 4.88258 6 6.4087 6 8C6 15 3 17 3 17H21C21 17 18 15 18 8Z" stroke="currentColor" stroke-width="2" stroke-linecap="round" stroke-linejoin="round"/>
<path d="M13.73 21C13.5542 21.3031 13.3019 21.5547 12.9982 21.7295C12.6946 21.9044 12.3504 21.9965 12 21.9965C11.6496 21.9965 11.3054 21.9044 11.0018 21.7295C10.6982 21.5547 10.4458 21.3031 10.27 21" stroke="currentColor" stroke-width="2" stroke-linecap="round" stroke-linejoin="round"/>
</symbol><symbol id="sprite-core-play" viewBox="0 0 30 30">
    <path d="M25 15L16.875 20.625L8.75 26.25V15V3.75L16.875 9.375L25 15Z" fill="currentColor"/>
</symbol><symbol id="sprite-core-search" viewBox="0 0 24 24">
    <circle cx="10.5" cy="10.5" r="6.5" fill="none" stroke="currentColor" stroke-width="2"/>
    <rect x="15.4141" y="14" width="7.49729" height="2" rx="1" transform="rotate(45 15.4141 14)" fill="currentColor" stroke="none"/>
</symbol><symbol id="sprite-core-star" viewBox="0 0 36 35">
    <path d="M17.0489 1.92705C17.3483 1.00574 18.6517 1.00574 18.9511 1.92705L22.2658 12.1287C22.3996 12.5407 22.7836 12.8197 23.2168 12.8197H33.9434C34.9122 12.8197 35.3149 14.0593 34.5312 14.6287L25.8532 20.9336C25.5027 21.1883 25.3561 21.6396 25.4899 22.0517L28.8046 32.2533C29.104 33.1746 28.0495 33.9407 27.2658 33.3713L18.5878 27.0664C18.2373 26.8117 17.7627 26.8117 17.4122 27.0664L8.73419 33.3713C7.95048 33.9407 6.896 33.1746 7.19535 32.2533L10.5101 22.0517C10.6439 21.6396 10.4973 21.1883 10.1468 20.9336L1.46877 14.6287C0.685055 14.0593 1.08783 12.8197 2.05655 12.8197H12.7832C13.2164 12.8197 13.6004 12.5407 13.7342 12.1287L17.0489 1.92705Z" fill="currentColor" stroke-width="2"/>
</symbol><symbol id="sprite-core-upvote" viewBox="0 0 24 24">
<polygon stroke="none" points="7,18.2 16.1,18.2 19.1,11.8 19.1,9.9 11.2,9.9 11.3,5 7,9 "/>
<path fill="currentColor" d="M4.2,9.1v10H0.8v-10H4.2z M7.5,19.1c-0.4,0-0.9-0.2-1.2-0.5c-0.3-0.3-0.5-0.7-0.5-1.2V9.1
	c0-0.5,0.2-0.9,0.5-1.2l5.5-5.5l0.9,0.9c0.2,0.2,0.4,0.5,0.4,0.9l0,0.3l-0.8,3.8h5.3c0.9,0,1.7,0.8,1.7,1.7v1.7c0,0.2,0,0.4-0.1,0.6
	l-2.5,5.9c-0.2,0.6-0.8,1-1.5,1H7.5z M7.5,17.4H15l2.5-5.8V9.9h-7.3l0.9-4.4L7.5,9.1V17.4z"/>
</symbol><symbol id="sprite-core-users" viewBox="0 0 24 24">
<path d="M12 4C10.9391 4 9.92172 4.42143 9.17157 5.17157C8.42143 5.92172 8 6.93913 8 8C8 9.06087 8.42143 10.0783 9.17157 10.8284C9.92172 11.5786 10.9391 12 12 12C13.0609 12 14.0783 11.5786 14.8284 10.8284C15.5786 10.0783 16 9.06087 16 8C16 6.93913 15.5786 5.92172 14.8284 5.17157C14.0783 4.42143 13.0609 4 12 4ZM12 5.9C13.16 5.9 14.1 6.84 14.1 8C14.1 9.16 13.16 10.1 12 10.1C11.443 10.1 10.9089 9.87875 10.5151 9.48492C10.1212 9.0911 9.9 8.55695 9.9 8C9.9 7.44305 10.1212 6.9089 10.5151 6.51508C10.9089 6.12125 11.443 5.9 12 5.9ZM12 13C9.33 13 4 14.33 4 17V20H20V17C20 14.33 14.67 13 12 13ZM12 14.9C14.97 14.9 18.1 16.36 18.1 17V18.1H5.9V17C5.9 16.36 9 14.9 12 14.9Z" fill="currentColor"/>
</symbol><symbol id="sprite-core-video" viewBox="0 0 28 28">
<path d="M25 9L18 14L25 19V9Z" stroke="currentColor" stroke-width="2" stroke-linecap="round" stroke-linejoin="round"/>
<path d="M16 7H5C3.89543 7 3 7.89543 3 9V19C3 20.1046 3.89543 21 5 21H16C17.1046 21 18 20.1046 18 19V9C18 7.89543 17.1046 7 16 7Z" stroke="currentColor" stroke-width="2" stroke-linecap="round" stroke-linejoin="round"/>
</symbol><symbol id="sprite-core-warning" viewBox="0 0 36 36">
<rect x="16.5" y="15" width="3" height="7.5" rx="1.5" fill="currentColor"/>
<rect x="16.5" y="24" width="3" height="3" rx="1.5" fill="currentColor"/>
<g clip-path="url(#clip0)">
<path fill-rule="evenodd" clip-rule="evenodd" d="M17.992 3C18.535 2.99977 19.0356 3.29451 19.3003 3.77027L26.8126 17.2754L34.3104 30.7657C34.569 31.231 34.5627 31.799 34.2938 32.2584C34.0248 32.7178 33.5335 33 33.0025 33H2.99751C2.46648 33 1.97517 32.7178 1.70624 32.2584C1.43731 31.799 1.43099 31.231 1.68962 30.7657L16.6844 3.77136C16.9487 3.29538 17.449 3.00023 17.992 3ZM17.9939 7.58787L5.54722 29.995H30.4528L24.1973 18.7399L17.9939 7.58787Z" fill="currentColor"/>
</g>
<path d="M3 31.5L2.12584 31.0144C1.95377 31.3241 1.95844 31.7017 2.13813 32.0071C2.31781 32.3125 2.64568 32.5 3 32.5L3 31.5ZM18 31.5V32.5V32.5V31.5ZM33 31.5V32.5C33.3543 32.5 33.6822 32.3125 33.8619 32.0071C34.0416 31.7017 34.0462 31.3241 33.8742 31.0144L33 31.5ZM18 4.5L18.8742 4.01436C18.6978 3.69689 18.3632 3.5 18 3.5C17.6368 3.5 17.3022 3.69689 17.1258 4.01436L18 4.5ZM3 32.5L18 32.5V30.5L3 30.5L3 32.5ZM18 32.5L33 32.5V30.5L18 30.5V32.5ZM33.8742 31.0144L18.8742 4.01436L17.1258 4.98564L32.1258 31.9856L33.8742 31.0144ZM17.1258 4.01436L2.12584 31.0144L3.87416 31.9856L18.8742 4.98564L17.1258 4.01436Z" fill="currentColor"/>

</symbol><symbol id="sprite-core-messaging-delete" viewBox="0 0 24 24">
    <path d="M9 3V4H4V6H5V19C5 19.5304 5.21071 20.0391 5.58579 20.4142C5.96086 20.7893 6.46957 21 7 21H17C17.5304 21 18.0391 20.7893 18.4142 20.4142C18.7893 20.0391 19 19.5304 19 19V6H20V4H15V3H9ZM7 6H17V19H7V6ZM9 8V17H11V8H9ZM13 8V17H15V8H13Z" fill="currentColor"/>
</symbol><symbol id="sprite-core-messaging-edit" viewBox="0 0 24 24">
    <path d="M13.9985 8.99414L14.9385 9.93414L5.85848 18.9941H4.93848V18.0741L13.9985 8.99414ZM17.5985 2.99414C17.3485 2.99414 17.0885 3.09414 16.8985 3.28414L15.0685 5.11414L18.8185 8.86414L20.6485 7.03414C21.0385 6.64414 21.0385 5.99414 20.6485 5.62414L18.3085 3.28414C18.1085 3.08414 17.8585 2.99414 17.5985 2.99414ZM13.9985 6.18414L2.93848 17.2441V20.9941H6.68848L17.7485 9.93414L13.9985 6.18414Z" fill="currentColor"/>
</symbol><symbol id="sprite-core-messaging-pin" viewBox="0 0 18 19">
    <path d="M12 9.5V3.5H12.75V2H5.25V3.5H6V9.5L4.5 11V12.5H8.4V17H9.6V12.5H13.5V11L12 9.5Z" fill="currentColor"/>
</symbol><symbol id="sprite-core-messaging-reply" viewBox="0 0 24 24">
    <path d="M12 23C11.7348 23 11.4804 22.8946 11.2929 22.7071C11.1054 22.5196 11 22.2652 11 22V19H7C6.46957 19 5.96086 18.7893 5.58579 18.4142C5.21071 18.0391 5 17.5304 5 17V7C5 6.46957 5.21071 5.96086 5.58579 5.58579C5.96086 5.21071 6.46957 5 7 5H21C21.5304 5 22.0391 5.21071 22.4142 5.58579C22.7893 5.96086 23 6.46957 23 7V17C23 17.5304 22.7893 18.0391 22.4142 18.4142C22.0391 18.7893 21.5304 19 21 19H16.9L13.2 22.71C13 22.89 12.76 23 12.5 23H12ZM13 17V20.08L16.08 17H21V7H7V17H13ZM3 15H1V3C1 2.46957 1.21071 1.96086 1.58579 1.58579C1.96086 1.21071 2.46957 1 3 1H19V3H3V15ZM9 9H19V11H9V9ZM9 13H17V15H9V13Z" fill="currentColor"/>
</symbol><symbol id="sprite-core-messaging-report" viewBox="0 0 24 24">
    <path d="M6 3C6.26522 3 6.51957 3.10536 6.70711 3.29289C6.89464 3.48043 7 3.73478 7 4V4.88C8.06 4.44 9.5 4 11 4C14 4 14 6 16 6C19 6 20 4 20 4V12C20 12 19 14 16 14C13 14 13 12 11 12C8 12 7 14 7 14V21H5V4C5 3.73478 5.10536 3.48043 5.29289 3.29289C5.48043 3.10536 5.73478 3 6 3ZM7 7.25V11.5C7 11.5 9 10 11 10C13 10 14 12 16 12C18 12 18 11 18 11V7.5C18 7.5 17 8 16 8C14 8 13 6 11 6C9 6 7 7.25 7 7.25Z" fill="currentColor"/>
</symbol><symbol id="sprite-core-messaging-send" viewBox="0 0 20 20">
<path fill-rule="evenodd" clip-rule="evenodd" d="M18.6882 1.31319C18.8834 1.50846 18.8834 1.82504 18.6882 2.0203L9.52152 11.187C9.32626 11.3822 9.00968 11.3822 8.81442 11.187C8.61915 10.9917 8.61915 10.6751 8.81441 10.4798L17.981 1.3132C18.1763 1.11793 18.4929 1.11793 18.6882 1.31319Z" fill="currentColor"/>
<path fill-rule="evenodd" clip-rule="evenodd" d="M18.6882 1.31321C18.824 1.44903 18.87 1.65064 18.8065 1.83194L12.9732 18.4986C12.9055 18.6921 12.7265 18.8246 12.5217 18.833C12.3168 18.8414 12.1277 18.7238 12.0444 18.5365L8.78917 11.2122L1.4649 7.957C1.27756 7.87374 1.16003 7.68455 1.16839 7.47971C1.17674 7.27487 1.3093 7.09589 1.5028 7.02816L18.1694 1.19483C18.3507 1.13138 18.5523 1.17739 18.6882 1.31321ZM3.02351 7.55539L9.37104 10.3765C9.48416 10.4268 9.5746 10.5172 9.62488 10.6303L12.446 16.9779L17.5196 2.48175L3.02351 7.55539Z" fill="currentColor"/>
</symbol><symbol id="sprite-core-messaging-thread" viewBox="0 0 24 24">
    <path d="M12 23C11.7348 23 11.4804 22.8946 11.2929 22.7071C11.1054 22.5196 11 22.2652 11 22V19H7C6.46957 19 5.96086 18.7893 5.58579 18.4142C5.21071 18.0391 5 17.5304 5 17V7C5 6.46957 5.21071 5.96086 5.58579 5.58579C5.96086 5.21071 6.46957 5 7 5H21C21.5304 5 22.0391 5.21071 22.4142 5.58579C22.7893 5.96086 23 6.46957 23 7V17C23 17.5304 22.7893 18.0391 22.4142 18.4142C22.0391 18.7893 21.5304 19 21 19H16.9L13.2 22.71C13 22.89 12.76 23 12.5 23H12ZM13 17V20.08L16.08 17H21V7H7V17H13ZM3 15H1V3C1 2.46957 1.21071 1.96086 1.58579 1.58579C1.96086 1.21071 2.46957 1 3 1H19V3H3V15ZM9 9H19V11H9V9ZM9 13H17V15H9V13Z" fill="currentColor"/>
</symbol><symbol id="sprite-core-video-chat-microphone" viewBox="0 0 16 16">
<path d="M11.5333 7.33398C11.5333 9.33398 9.83992 10.734 7.99992 10.734C6.15992 10.734 4.46659 9.33398 4.46659 7.33398H3.33325C3.33325 9.60732 5.14659 11.4873 7.33325 11.814V14.0007H8.66659V11.814C10.8533 11.4873 12.6666 9.60732 12.6666 7.33398H11.5333ZM7.19992 3.26732C7.19992 2.82732 7.55992 2.46732 7.99992 2.46732C8.43992 2.46732 8.79992 2.82732 8.79992 3.26732L8.79325 7.40065C8.79325 7.84065 8.43992 8.20065 7.99992 8.20065C7.55992 8.20065 7.19992 7.84065 7.19992 7.40065V3.26732ZM7.99992 9.33398C8.53035 9.33398 9.03906 9.12327 9.41413 8.7482C9.78921 8.37313 9.99992 7.86442 9.99992 7.33398V3.33398C9.99992 2.80355 9.78921 2.29484 9.41413 1.91977C9.03906 1.5447 8.53035 1.33398 7.99992 1.33398C7.46949 1.33398 6.96078 1.5447 6.5857 1.91977C6.21063 2.29484 5.99992 2.80355 5.99992 3.33398V7.33398C5.99992 7.86442 6.21063 8.37313 6.5857 8.7482C6.96078 9.12327 7.46949 9.33398 7.99992 9.33398Z" fill="#959CA5"/>
</symbol><symbol id="sprite-core-video-chat-user-remove" viewBox="0 0 16 16">
<path d="M0.973389 5.91935L1.92006 4.97268L3.33339 6.39268L4.74672 4.97268L5.69339 5.91935L4.27339 7.33268L5.69339 8.74602L4.74672 9.69268L3.33339 8.27268L1.92006 9.69268L0.973389 8.74602L2.39339 7.33268L0.973389 5.91935ZM10.0001 2.66602C10.7073 2.66602 11.3856 2.94697 11.8857 3.44706C12.3858 3.94716 12.6667 4.62544 12.6667 5.33268C12.6667 6.03993 12.3858 6.7182 11.8857 7.2183C11.3856 7.7184 10.7073 7.99935 10.0001 7.99935C9.29281 7.99935 8.61453 7.7184 8.11444 7.2183C7.61434 6.7182 7.33339 6.03993 7.33339 5.33268C7.33339 4.62544 7.61434 3.94716 8.11444 3.44706C8.61453 2.94697 9.29281 2.66602 10.0001 2.66602ZM10.0001 3.93268C9.62875 3.93268 9.27266 4.08018 9.01011 4.34273C8.74756 4.60528 8.60006 4.96138 8.60006 5.33268C8.60006 5.70399 8.74756 6.06008 9.01011 6.32263C9.27266 6.58518 9.62875 6.73268 10.0001 6.73268C10.7734 6.73268 11.4001 6.10602 11.4001 5.33268C11.4001 4.55935 10.7734 3.93268 10.0001 3.93268ZM10.0001 8.66602C11.7801 8.66602 15.3334 9.55268 15.3334 11.3327V13.3327H4.66672V11.3327C4.66672 9.55268 8.22006 8.66602 10.0001 8.66602ZM10.0001 9.93268C8.00006 9.93268 5.93339 10.906 5.93339 11.3327V12.066H14.0667V11.3327C14.0667 10.906 11.9801 9.93268 10.0001 9.93268Z" fill="#959CA5"/>
</symbol><symbol id="sprite-vr-setup-confirmation" viewBox="0 0 59 53">
<g filter="url(#vr-setup-confirmation)">
<path d="M6 29.0303L22.8718 46L53 6" stroke="currentColor" stroke-width="1.5" fill="none"/>
</g>

</symbol><symbol id="sprite-vr-setup-microphone" viewBox="0 0 47 70">
<g filter="url(#vr-setup-microphone)">
<rect x="16.0763" y="5.75" width="14.8634" height="38.4994" rx="7.4317" stroke="currentColor" stroke-width="1.5" fill="none"/>
<rect x="16.0763" y="5.75" width="14.8634" height="38.4994" rx="7.4317" stroke="currentColor" stroke-width="1.5" fill="none"/>
<rect x="16.0763" y="5.75" width="14.8634" height="38.4994" rx="7.4317" stroke="currentColor" stroke-width="1.5" fill="none"/>
<path d="M6.22754 35.9082C6.22754 44.9455 13.9607 52.2716 23.5 52.2716C33.0393 52.2716 40.7725 44.9455 40.7725 35.9082" stroke="currentColor" stroke-width="1.5" stroke-linecap="round" fill="none"/>
<path d="M6.22754 35.9082C6.22754 44.9455 13.9607 52.2716 23.5 52.2716C33.0393 52.2716 40.7725 44.9455 40.7725 35.9082" stroke="currentColor" stroke-width="1.5" stroke-linecap="round" fill="none"/>
<path d="M6.22754 35.9082C6.22754 44.9455 13.9607 52.2716 23.5 52.2716C33.0393 52.2716 40.7725 44.9455 40.7725 35.9082" stroke="currentColor" stroke-width="1.5" stroke-linecap="round" fill="none"/>
<rect x="22.598" y="52.2725" width="1.81815" height="12.7271" fill="currentColor"/>
</g>

</symbol><symbol id="sprite-core-pov-1st" viewBox="0 0 40 40">
<circle cx="19.9775" cy="14" r="6" stroke="currentColor" stroke-width="2" fill="none"/>
<path d="M26.4309 31L27.0645 27.7699C27.5491 25.2988 25.6574 23 23.1393 23H16.8607C14.3426 23 12.4509 25.2988 12.9355 27.7699L13.5691 31" stroke="currentColor" stroke-width="2" stroke-linecap="round" fill="none"/>
</symbol><symbol id="sprite-core-pov-3rd" viewBox="0 0 40 40">
<circle cx="27.5" cy="11.5" r="2" fill="currentColor" stroke="currentColor"/>
<path d="M14.5 16L16.4142 14.0858C16.7893 13.7107 17.298 13.5 17.8284 13.5H21.1716C21.702 13.5 22.2107 13.7107 22.5858 14.0858L26.9142 18.4142C27.2893 18.7893 27.798 19 28.3284 19H31.5" stroke="currentColor" stroke-width="2" stroke-linecap="round" fill="none"/>
<path d="M24 15.5L19 20.5L23.9142 25.4142C24.2893 25.7893 24.5 26.298 24.5 26.8284V31.5" stroke="currentColor" stroke-width="2" stroke-linecap="round" fill="none"/>
<path d="M19 20.5L14.0858 25.4142C13.7107 25.7893 13.202 26 12.6716 26H8" stroke="currentColor" stroke-width="2" stroke-linecap="round" fill="none"/>
</symbol><symbol id="sprite-core-pov-avatar" viewBox="0 0 40 40">
<circle cx="27.5" cy="11.5" r="2" fill="currentColor" stroke="currentColor"/>
<path d="M14.5 16L16.4142 14.0858C16.7893 13.7107 17.298 13.5 17.8284 13.5H21.1716C21.702 13.5 22.2107 13.7107 22.5858 14.0858L26.9142 18.4142C27.2893 18.7893 27.798 19 28.3284 19H31.5" stroke="currentColor" stroke-width="2" stroke-linecap="round" fill="none"/>
<path d="M24 15.5L19 20.5L23.9142 25.4142C24.2893 25.7893 24.5 26.298 24.5 26.8284V31.5" stroke="currentColor" stroke-width="2" stroke-linecap="round" fill="none"/>
<path d="M19 20.5L14.0858 25.4142C13.7107 25.7893 13.202 26 12.6716 26H8" stroke="currentColor" stroke-width="2" stroke-linecap="round" fill="none"/>
</symbol><symbol id="sprite-core-pov-face" viewBox="0 0 40 40">
<circle cx="19.9775" cy="14" r="6" stroke="currentColor" stroke-width="2" fill="none"/>
<path d="M26.4309 31L27.0645 27.7699C27.5491 25.2988 25.6574 23 23.1393 23H16.8607C14.3426 23 12.4509 25.2988 12.9355 27.7699L13.5691 31" stroke="currentColor" stroke-width="2" stroke-linecap="round" fill="none"/>

</symbol>

<symbol id="sprite-transparent-artworks" viewBox="0 0 24 16">
<rect x="7" y="1" width="10" height="14" stroke="black"/>
<rect x="17" y="5" width="6" height="6" stroke="black"/>
<rect x="1" y="5" width="6" height="6" stroke="black"/>
</symbol><symbol id="sprite-transparent-settings" viewBox="0 0 24 24">
<path d="M12.2419 9.61907C11.7369 9.57058 11.2288 9.67502 10.7872 9.91806C10.3456 10.1611 9.99212 10.5309 9.77508 10.9768C9.55805 11.4227 9.48811 11.9229 9.57483 12.4089C9.66156 12.8949 9.90071 13.343 10.2595 13.6918C10.6184 14.0406 11.0794 14.273 11.5794 14.3573C12.0794 14.4416 12.5939 14.3736 13.0527 14.1627C13.5114 13.9517 13.8918 13.6081 14.1418 13.1789C14.3919 12.7496 14.4993 12.2557 14.4494 11.7649C14.3926 11.2146 14.1417 10.7003 13.7394 10.3092C13.3371 9.91817 12.808 9.67434 12.2419 9.61907V9.61907ZM18.1684 12C18.1669 12.2601 18.1472 12.5197 18.1096 12.7772L19.8483 14.1028C19.924 14.1638 19.975 14.2489 19.9923 14.343C20.0095 14.4371 19.9919 14.5342 19.9425 14.6168L18.2976 17.3832C18.2477 17.4651 18.1696 17.5272 18.0772 17.5585C17.9847 17.5899 17.8838 17.5886 17.7923 17.5548L16.0655 16.8789C15.9703 16.842 15.8671 16.8287 15.7653 16.8401C15.6635 16.8515 15.5662 16.8873 15.4821 16.9443C15.2185 17.1207 14.9416 17.2774 14.6537 17.4131C14.5631 17.4558 14.4848 17.5196 14.4257 17.5988C14.3665 17.6779 14.3283 17.77 14.3145 17.8669L14.0556 19.6572C14.0386 19.7517 13.9884 19.8376 13.9135 19.9001C13.8385 19.9627 13.7436 19.998 13.6449 20H10.3551C10.258 19.9984 10.1644 19.9646 10.0897 19.9044C10.0149 19.8441 9.96355 19.7609 9.94399 19.6684L9.68554 17.8807C9.67103 17.7828 9.63184 17.6898 9.57145 17.6101C9.51107 17.5304 9.43136 17.4665 9.33941 17.4239C9.05182 17.289 8.77583 17.1318 8.51408 16.954C8.43028 16.8973 8.33329 16.8618 8.23184 16.8507C8.13039 16.8395 8.02769 16.8531 7.93297 16.8901L6.20655 17.5656C6.11506 17.5995 6.01421 17.6009 5.92176 17.5695C5.82932 17.5382 5.75121 17.4762 5.7012 17.3944L4.05631 14.628C4.00686 14.5454 3.98919 14.4484 4.00644 14.3542C4.0237 14.2601 4.07476 14.175 4.15054 14.114L5.62005 12.9925C5.70056 12.9304 5.76383 12.8497 5.80413 12.7578C5.84443 12.6659 5.86047 12.5656 5.8508 12.4662C5.83696 12.3103 5.8285 12.1548 5.8285 11.9989C5.8285 11.843 5.83658 11.6897 5.8508 11.5372C5.85941 11.4383 5.84258 11.3389 5.80183 11.248C5.76108 11.157 5.69769 11.0773 5.61736 11.0161L4.14861 9.89458C4.07407 9.83331 4.02408 9.74849 4.00741 9.65498C3.99075 9.56148 4.00847 9.46526 4.05747 9.38318L5.70235 6.61682C5.75231 6.53495 5.83039 6.47284 5.92284 6.44145C6.01529 6.41006 6.11617 6.4114 6.2077 6.44523L7.93451 7.12112C8.02973 7.15798 8.13288 7.17129 8.2347 7.15987C8.33652 7.14846 8.43384 7.11266 8.51793 7.0557C8.78147 6.8793 9.0584 6.72259 9.34634 6.58692C9.43686 6.54415 9.51516 6.48038 9.57432 6.40123C9.63347 6.32208 9.67167 6.22998 9.68554 6.13308L9.94437 4.3428C9.96137 4.24825 10.0116 4.16238 10.0865 4.09985C10.1615 4.03733 10.2564 4.00203 10.3551 4H13.6449C13.742 4.00163 13.8356 4.03536 13.9103 4.09564C13.9851 4.15591 14.0364 4.23913 14.056 4.33159L14.3145 6.11925C14.329 6.21722 14.3682 6.31019 14.4285 6.38988C14.4889 6.46958 14.5686 6.53354 14.6606 6.57607C14.9482 6.71101 15.2242 6.86815 15.4859 7.04598C15.5697 7.10266 15.6667 7.13818 15.7682 7.14934C15.8696 7.1605 15.9723 7.14695 16.067 7.10991L17.7935 6.43439C17.8849 6.40053 17.9858 6.39913 18.0782 6.43045C18.1707 6.46177 18.2488 6.5238 18.2988 6.60561L19.9437 9.37196C19.9931 9.45461 20.0108 9.55164 19.9936 9.64577C19.9763 9.7399 19.9252 9.82502 19.8495 9.88598L18.3799 11.0075C18.2991 11.0694 18.2354 11.15 18.1948 11.2419C18.1542 11.3338 18.1378 11.4342 18.1473 11.5338C18.16 11.6886 18.1684 11.8441 18.1684 12Z" stroke="#1D1D1B" stroke-width="1.5" stroke-linecap="round" stroke-linejoin="round"/>
</symbol><symbol id="sprite-transparent-voice" viewBox="0 0 24 24">
<circle cx="9.5" cy="9.5" r="2.75" stroke="#1D1D1B" stroke-width="1.5"/>
<path d="M16.25 17.5C16.25 18.002 15.7844 18.6894 14.4861 19.2952C13.2488 19.8727 11.4867 20.25 9.5 20.25C7.51325 20.25 5.75118 19.8727 4.51386 19.2952C3.21564 18.6894 2.75 18.002 2.75 17.5C2.75 16.998 3.21564 16.3106 4.51386 15.7048C5.75118 15.1273 7.51325 14.75 9.5 14.75C11.4867 14.75 13.2488 15.1273 14.4861 15.7048C15.7844 16.3106 16.25 16.998 16.25 17.5Z" stroke="#1D1D1B" stroke-width="1.5"/>
<path d="M17.01 6.91003C18.62 8.52003 18.62 11.12 17.01 12.73" stroke="#1D1D1B" stroke-width="1.5" stroke-miterlimit="10" stroke-linecap="round"/>
<path d="M14.75 8.07996C15.72 9.04996 15.72 10.6 14.75 11.57" stroke="#1D1D1B" stroke-width="1.5" stroke-miterlimit="10" stroke-linecap="round"/>
<path d="M19.26 5.75C21.51 8 21.51 11.65 19.26 13.89" stroke="#1D1D1B" stroke-width="1.5" stroke-miterlimit="10" stroke-linecap="round"/>
</symbol><symbol id="sprite-transparent-wallet" viewBox="0 0 24 24">
<rect x="3.75" y="5.75" width="16.5" height="12.5" rx="1.25" stroke="#1D1D1B" stroke-width="1.5"/>
<rect x="14" y="10" width="6" height="4" rx="1" stroke="#1D1D1B" stroke-width="1.5"/>
<line x1="6.75" y1="9.25" x2="9.25" y2="9.25" stroke="#1D1D1B" stroke-width="1.5" stroke-linecap="round"/>
</symbol></svg>